<svg width="164" height="38" viewBox="0 0 164 38" fill="none" xmlns="http://www.w3.org/2000/svg">
<path opacity="0.5" d="M40.1663 0.256714L30.3612 34.9917C30.3114 35.1494 30.1119 35.1967 29.9956 35.0863L23.4312 28.8583L28.3503 11.4514C28.4002 11.2937 28.2506 11.1518 28.0844 11.1991L9.73729 15.8662L3.2061 9.66969C3.08977 9.55932 3.13963 9.37011 3.30581 9.32281L39.9004 0.00444022C40.0666 -0.027094 40.2162 0.11481 40.1663 0.256714Z" fill="#00B37E"/>
<path opacity="0.5" d="M23.4308 28.858L20.9047 37.8452C20.8549 38.0029 20.6555 38.0502 20.5391 37.9398L0.164475 18.6251C0.0481429 18.5147 0.097999 18.3255 0.264187 18.2782L9.7369 15.8658L23.4308 28.858Z" fill="#00B37E"/>
<path d="M28.3495 11.451L23.4303 28.8579L9.73645 15.8658L28.0836 11.1988C28.2498 11.1515 28.3994 11.2934 28.3495 11.451Z" fill="#00B37E"/>
<path d="M59.3948 7.25V30H53.9104V7.25H59.3948ZM68.2385 16.7188V20.9375H57.8323V16.7188H68.2385ZM69.1292 7.25V11.4844H57.8323V7.25H69.1292ZM76.5629 13.0938V30H71.2817V13.0938H76.5629ZM70.9692 8.73438C70.9692 7.98438 71.24 7.36979 71.7817 6.89062C72.3233 6.41146 73.0264 6.17188 73.891 6.17188C74.7556 6.17188 75.4587 6.41146 76.0004 6.89062C76.5421 7.36979 76.8129 7.98438 76.8129 8.73438C76.8129 9.48438 76.5421 10.099 76.0004 10.5781C75.4587 11.0573 74.7556 11.2969 73.891 11.2969C73.0264 11.2969 72.3233 11.0573 71.7817 10.5781C71.24 10.099 70.9692 9.48438 70.9692 8.73438ZM84.8248 16.7031V30H79.5592V13.0938H84.4967L84.8248 16.7031ZM84.1998 20.9688L82.9654 21C82.9654 19.7083 83.1217 18.5573 83.4342 17.5469C83.7467 16.526 84.1894 15.6615 84.7623 14.9531C85.3352 14.2448 86.0175 13.7083 86.8092 13.3438C87.6112 12.9688 88.5019 12.7812 89.481 12.7812C90.2623 12.7812 90.9758 12.8958 91.6217 13.125C92.2779 13.3542 92.8404 13.724 93.3092 14.2344C93.7883 14.7448 94.1529 15.4219 94.4029 16.2656C94.6633 17.099 94.7935 18.1302 94.7935 19.3594V30H89.4967V19.3438C89.4967 18.6667 89.4029 18.151 89.2154 17.7969C89.0279 17.4323 88.7571 17.1823 88.4029 17.0469C88.0487 16.9115 87.6164 16.8438 87.106 16.8438C86.5644 16.8438 86.106 16.9479 85.731 17.1562C85.356 17.3646 85.0539 17.6562 84.8248 18.0312C84.606 18.3958 84.4446 18.8281 84.3404 19.3281C84.2467 19.8281 84.1998 20.375 84.1998 20.9688ZM103.29 7.25V30H97.8054V7.25H103.29ZM112.134 16.7188V20.9375H101.727V16.7188H112.134ZM113.024 7.25V11.4844H101.727V7.25H113.024ZM120.458 6V30H115.177V6H120.458ZM122.892 21.7188V21.3906C122.892 20.151 123.069 19.0104 123.423 17.9688C123.777 16.9167 124.298 16.0052 124.985 15.2344C125.673 14.4635 126.522 13.8646 127.532 13.4375C128.543 13 129.709 12.7812 131.032 12.7812C132.366 12.7812 133.537 13 134.548 13.4375C135.569 13.8646 136.423 14.4635 137.11 15.2344C137.798 16.0052 138.319 16.9167 138.673 17.9688C139.027 19.0104 139.204 20.151 139.204 21.3906V21.7188C139.204 22.9479 139.027 24.0885 138.673 25.1406C138.319 26.1823 137.798 27.0938 137.11 27.875C136.423 28.6458 135.574 29.2448 134.564 29.6719C133.553 30.099 132.386 30.3125 131.064 30.3125C129.741 30.3125 128.569 30.099 127.548 29.6719C126.527 29.2448 125.673 28.6458 124.985 27.875C124.298 27.0938 123.777 26.1823 123.423 25.1406C123.069 24.0885 122.892 22.9479 122.892 21.7188ZM128.157 21.3906V21.7188C128.157 22.3542 128.204 22.9479 128.298 23.5C128.392 24.0521 128.548 24.5365 128.767 24.9531C128.985 25.3594 129.282 25.6771 129.657 25.9062C130.032 26.1354 130.501 26.25 131.064 26.25C131.616 26.25 132.074 26.1354 132.439 25.9062C132.814 25.6771 133.11 25.3594 133.329 24.9531C133.548 24.5365 133.704 24.0521 133.798 23.5C133.892 22.9479 133.939 22.3542 133.939 21.7188V21.3906C133.939 20.776 133.892 20.1979 133.798 19.6562C133.704 19.1042 133.548 18.6198 133.329 18.2031C133.11 17.776 132.814 17.4427 132.439 17.2031C132.064 16.9635 131.595 16.8438 131.032 16.8438C130.48 16.8438 130.017 16.9635 129.642 17.2031C129.277 17.4427 128.985 17.776 128.767 18.2031C128.548 18.6198 128.392 19.1042 128.298 19.6562C128.204 20.1979 128.157 20.776 128.157 21.3906ZM146.529 24.9688L149.654 13.0938H152.95L151.779 19.0469L148.685 30H146.044L146.529 24.9688ZM145.294 13.0938L147.232 24.875L147.45 30H144.247L140.247 13.0938H145.294ZM155.732 24.625L157.685 13.0938H162.732L158.763 30H155.56L155.732 24.625ZM153.325 13.0938L156.482 24.9375L156.966 30H154.294L151.263 19.0781L150.138 13.0938H153.325Z" fill="#E1E1E6"/>
</svg>
