<svg width="106" height="24" viewBox="0 0 106 24" fill="none" xmlns="http://www.w3.org/2000/svg">
<path opacity="0.5" d="M23.9942 0.775048L18.1221 21.5771C18.0923 21.6715 17.9728 21.6998 17.9032 21.6337L13.9719 17.9039L16.9178 7.47928C16.9477 7.38486 16.8581 7.29987 16.7586 7.3282L5.77089 10.1232L1.8595 6.41227C1.78983 6.34617 1.81969 6.23286 1.91922 6.20453L23.8349 0.623967C23.9344 0.605081 24.024 0.690065 23.9942 0.775048Z" fill="#00B37E"/>
<path opacity="0.5" d="M13.9717 17.9037L12.4589 23.286C12.429 23.3804 12.3096 23.4087 12.2399 23.3426L0.037969 11.7755C-0.0316994 11.7094 -0.00184166 11.5961 0.0976847 11.5677L5.77069 10.123L13.9717 17.9037Z" fill="#00B37E"/>
<path d="M16.9172 7.47911L13.9712 17.9037L5.77026 10.123L16.758 7.32803C16.8575 7.2997 16.9471 7.38468 16.9172 7.47911Z" fill="#00B37E"/>
<path d="M40.5117 4.78125V19H37.084V4.78125H40.5117ZM46.0391 10.6992V13.3359H39.5352V10.6992H46.0391ZM46.5957 4.78125V7.42773H39.5352V4.78125H46.5957ZM51.2418 8.43359V19H47.941V8.43359H51.2418ZM47.7457 5.70898C47.7457 5.24023 47.915 4.85612 48.2535 4.55664C48.5921 4.25716 49.0315 4.10742 49.5719 4.10742C50.1122 4.10742 50.5517 4.25716 50.8902 4.55664C51.2288 4.85612 51.398 5.24023 51.398 5.70898C51.398 6.17773 51.2288 6.56185 50.8902 6.86133C50.5517 7.16081 50.1122 7.31055 49.5719 7.31055C49.0315 7.31055 48.5921 7.16081 48.2535 6.86133C47.915 6.56185 47.7457 6.17773 47.7457 5.70898ZM56.4055 10.6895V19H53.1145V8.43359H56.2004L56.4055 10.6895ZM56.0148 13.3555L55.2434 13.375C55.2434 12.5677 55.341 11.8483 55.5363 11.2168C55.7316 10.5788 56.0083 10.0384 56.3664 9.5957C56.7245 9.15299 57.1509 8.81771 57.6457 8.58984C58.147 8.35547 58.7036 8.23828 59.3156 8.23828C59.8039 8.23828 60.2499 8.3099 60.6535 8.45312C61.0637 8.59635 61.4152 8.82747 61.7082 9.14648C62.0077 9.46549 62.2355 9.88867 62.3918 10.416C62.5546 10.9368 62.6359 11.5814 62.6359 12.3496V19H59.3254V12.3398C59.3254 11.9167 59.2668 11.5944 59.1496 11.373C59.0324 11.1452 58.8632 10.9889 58.6418 10.9043C58.4204 10.8197 58.1503 10.7773 57.8312 10.7773C57.4927 10.7773 57.2062 10.8424 56.9719 10.9727C56.7375 11.1029 56.5487 11.2852 56.4055 11.5195C56.2687 11.7474 56.1678 12.0176 56.1027 12.3301C56.0441 12.6426 56.0148 12.9844 56.0148 13.3555ZM67.9461 4.78125V19H64.5184V4.78125H67.9461ZM73.4734 10.6992V13.3359H66.9695V10.6992H73.4734ZM74.0301 4.78125V7.42773H66.9695V4.78125H74.0301ZM78.6762 4V19H75.3754V4H78.6762ZM80.1973 13.8242V13.6191C80.1973 12.8444 80.3079 12.1315 80.5293 11.4805C80.7507 10.8229 81.0762 10.2533 81.5059 9.77148C81.9355 9.28971 82.4661 8.91536 83.0977 8.64844C83.7292 8.375 84.4583 8.23828 85.2852 8.23828C86.1185 8.23828 86.8509 8.375 87.4824 8.64844C88.1204 8.91536 88.6543 9.28971 89.084 9.77148C89.5137 10.2533 89.8392 10.8229 90.0605 11.4805C90.2819 12.1315 90.3926 12.8444 90.3926 13.6191V13.8242C90.3926 14.5924 90.2819 15.3053 90.0605 15.9629C89.8392 16.6139 89.5137 17.1836 89.084 17.6719C88.6543 18.1536 88.1237 18.528 87.4922 18.7949C86.8607 19.0618 86.1315 19.1953 85.3047 19.1953C84.4779 19.1953 83.7454 19.0618 83.1074 18.7949C82.4694 18.528 81.9355 18.1536 81.5059 17.6719C81.0762 17.1836 80.7507 16.6139 80.5293 15.9629C80.3079 15.3053 80.1973 14.5924 80.1973 13.8242ZM83.4883 13.6191V13.8242C83.4883 14.2214 83.5176 14.5924 83.5762 14.9375C83.6348 15.2826 83.7324 15.5853 83.8691 15.8457C84.0059 16.0996 84.1914 16.2982 84.4258 16.4414C84.6602 16.5846 84.9531 16.6562 85.3047 16.6562C85.6497 16.6562 85.9362 16.5846 86.1641 16.4414C86.3984 16.2982 86.584 16.0996 86.7207 15.8457C86.8574 15.5853 86.9551 15.2826 87.0137 14.9375C87.0723 14.5924 87.1016 14.2214 87.1016 13.8242V13.6191C87.1016 13.235 87.0723 12.8737 87.0137 12.5352C86.9551 12.1901 86.8574 11.8874 86.7207 11.627C86.584 11.36 86.3984 11.1517 86.1641 11.002C85.9297 10.8522 85.6367 10.7773 85.2852 10.7773C84.9401 10.7773 84.6504 10.8522 84.416 11.002C84.1882 11.1517 84.0059 11.36 83.8691 11.627C83.7324 11.8874 83.6348 12.1901 83.5762 12.5352C83.5176 12.8737 83.4883 13.235 83.4883 13.6191ZM94.9703 15.8555L96.9234 8.43359H98.984L98.2516 12.1543L96.318 19H94.6676L94.9703 15.8555ZM94.1988 8.43359L95.4098 15.7969L95.5465 19H93.5445L91.0445 8.43359H94.1988ZM100.722 15.6406L101.943 8.43359H105.097L102.617 19H100.615L100.722 15.6406ZM99.2184 8.43359L101.191 15.8359L101.494 19H99.8238L97.9293 12.1738L97.2262 8.43359H99.2184Z" fill="#E1E1E6"/>
</svg>
